<svg width="208" height="31" viewBox="0 0 208 31" fill="none" xmlns="http://www.w3.org/2000/svg">
<path d="M0.556818 24V0.727272H9.07955C10.7311 0.727272 12.0985 0.999999 13.1818 1.54545C14.2652 2.08333 15.0758 2.81439 15.6136 3.73864C16.1515 4.6553 16.4205 5.68939 16.4205 6.84091C16.4205 7.81061 16.2424 8.62879 15.8864 9.29545C15.5303 9.95454 15.053 10.4848 14.4545 10.8864C13.8636 11.2803 13.2121 11.5682 12.5 11.75V11.9773C13.2727 12.0152 14.0265 12.2652 14.7614 12.7273C15.5038 13.1818 16.1174 13.8295 16.6023 14.6705C17.0871 15.5114 17.3295 16.5341 17.3295 17.7386C17.3295 18.928 17.0492 19.9962 16.4886 20.9432C15.9356 21.8826 15.0795 22.6288 13.9205 23.1818C12.7614 23.7273 11.2803 24 9.47727 24H0.556818ZM4.06818 20.9886H9.13636C10.8182 20.9886 12.0227 20.6629 12.75 20.0114C13.4773 19.3598 13.8409 18.5455 13.8409 17.5682C13.8409 16.8333 13.6553 16.1591 13.2841 15.5455C12.9129 14.9318 12.3826 14.4432 11.6932 14.0795C11.0114 13.7159 10.2008 13.5341 9.26136 13.5341H4.06818V20.9886ZM4.06818 10.7955H8.77273C9.56061 10.7955 10.2689 10.6439 10.8977 10.3409C11.5341 10.0379 12.0379 9.61364 12.4091 9.06818C12.7879 8.51515 12.9773 7.86364 12.9773 7.11364C12.9773 6.15151 12.6402 5.3447 11.9659 4.69318C11.2917 4.04167 10.2576 3.71591 8.86364 3.71591H4.06818V10.7955ZM26.3011 24.3864C25.1951 24.3864 24.1951 24.1818 23.3011 23.7727C22.4072 23.3561 21.6989 22.7538 21.1761 21.9659C20.661 21.178 20.4034 20.2121 20.4034 19.0682C20.4034 18.0833 20.5928 17.2727 20.9716 16.6364C21.3504 16 21.8617 15.4962 22.5057 15.125C23.1496 14.7538 23.8693 14.4735 24.6648 14.2841C25.4602 14.0947 26.2708 13.9508 27.0966 13.8523C28.142 13.7311 28.9905 13.6326 29.642 13.5568C30.2936 13.4735 30.767 13.3409 31.0625 13.1591C31.358 12.9773 31.5057 12.6818 31.5057 12.2727V12.1932C31.5057 11.2008 31.2254 10.4318 30.6648 9.88636C30.1117 9.34091 29.286 9.06818 28.1875 9.06818C27.0436 9.06818 26.142 9.32197 25.483 9.82955C24.8314 10.3295 24.3807 10.8864 24.1307 11.5L20.9375 10.7727C21.3163 9.71212 21.8693 8.85606 22.5966 8.20455C23.3314 7.54545 24.1761 7.06818 25.1307 6.77273C26.0852 6.4697 27.089 6.31818 28.142 6.31818C28.839 6.31818 29.5777 6.40152 30.358 6.56818C31.1458 6.72727 31.8807 7.02273 32.5625 7.45454C33.2519 7.88636 33.8163 8.50379 34.2557 9.30682C34.6951 10.1023 34.9148 11.1364 34.9148 12.4091V24H31.5966V21.6136H31.4602C31.2405 22.053 30.911 22.4848 30.4716 22.9091C30.0322 23.3333 29.4678 23.6856 28.7784 23.9659C28.089 24.2462 27.2633 24.3864 26.3011 24.3864ZM27.0398 21.6591C27.9792 21.6591 28.7822 21.4735 29.4489 21.1023C30.1231 20.7311 30.6345 20.2462 30.983 19.6477C31.339 19.0417 31.517 18.3939 31.517 17.7045V15.4545C31.3958 15.5758 31.161 15.6894 30.8125 15.7955C30.4716 15.8939 30.0814 15.9811 29.642 16.0568C29.2027 16.125 28.7746 16.1894 28.358 16.25C27.9413 16.303 27.5928 16.3485 27.3125 16.3864C26.6534 16.4697 26.0511 16.6098 25.5057 16.8068C24.9678 17.0038 24.536 17.2879 24.2102 17.6591C23.892 18.0227 23.733 18.5076 23.733 19.1136C23.733 19.9545 24.0436 20.5909 24.6648 21.0227C25.286 21.447 26.0777 21.6591 27.0398 21.6591ZM46.7926 24.3523C45.1032 24.3523 43.6487 23.9697 42.429 23.2045C41.2169 22.4318 40.285 21.3674 39.6335 20.0114C38.982 18.6553 38.6562 17.1023 38.6562 15.3523C38.6562 13.5795 38.9896 12.0152 39.6562 10.6591C40.3229 9.29545 41.2623 8.23106 42.4744 7.46591C43.6866 6.70076 45.1146 6.31818 46.7585 6.31818C48.0843 6.31818 49.2661 6.56439 50.304 7.05682C51.3419 7.54167 52.179 8.22348 52.8153 9.10227C53.4593 9.98106 53.8419 11.0076 53.9631 12.1818H50.6562C50.4744 11.3636 50.0578 10.6591 49.4062 10.0682C48.7623 9.47727 47.8987 9.18182 46.8153 9.18182C45.8684 9.18182 45.0388 9.43182 44.3267 9.93182C43.6222 10.4242 43.0729 11.1288 42.679 12.0455C42.285 12.9545 42.0881 14.0303 42.0881 15.2727C42.0881 16.5455 42.2813 17.6439 42.6676 18.5682C43.054 19.4924 43.5994 20.2083 44.304 20.7159C45.0161 21.2235 45.8532 21.4773 46.8153 21.4773C47.4593 21.4773 48.0426 21.3598 48.5653 21.125C49.0956 20.8826 49.5388 20.5379 49.8949 20.0909C50.2585 19.6439 50.5123 19.1061 50.6562 18.4773H53.9631C53.8419 19.6061 53.4744 20.6136 52.8608 21.5C52.2472 22.3864 51.4252 23.0833 50.3949 23.5909C49.3722 24.0985 48.1714 24.3523 46.7926 24.3523ZM60.7216 18.0795L60.6989 13.9318H61.2898L68.2443 6.54545H72.3125L64.3807 14.9545H63.8466L60.7216 18.0795ZM57.5966 24V0.727272H60.9943V24H57.5966ZM68.6193 24L62.3693 15.7045L64.7102 13.3295L72.7898 24H68.6193ZM82.0085 30.9091C80.6222 30.9091 79.429 30.7273 78.429 30.3636C77.4366 30 76.6259 29.5189 75.9972 28.9205C75.3684 28.322 74.8987 27.6667 74.5881 26.9545L77.5085 25.75C77.7131 26.0833 77.9858 26.4356 78.3267 26.8068C78.6752 27.1856 79.1449 27.5076 79.7358 27.7727C80.3343 28.0379 81.1032 28.1705 82.0426 28.1705C83.3305 28.1705 84.3949 27.8561 85.2358 27.2273C86.0767 26.6061 86.4972 25.6136 86.4972 24.25V20.8182H86.2812C86.0767 21.1894 85.7813 21.6023 85.3949 22.0568C85.0161 22.5114 84.4934 22.9053 83.8267 23.2386C83.16 23.572 82.2926 23.7386 81.2244 23.7386C79.8456 23.7386 78.6032 23.4167 77.4972 22.7727C76.3987 22.1212 75.5275 21.1629 74.8835 19.8977C74.2472 18.625 73.929 17.0606 73.929 15.2045C73.929 13.3485 74.2434 11.7576 74.8722 10.4318C75.5085 9.10606 76.3797 8.09091 77.4858 7.38636C78.5919 6.67424 79.8456 6.31818 81.2472 6.31818C82.3305 6.31818 83.2055 6.5 83.8722 6.86364C84.5388 7.2197 85.0578 7.63636 85.429 8.11364C85.8078 8.59091 86.0994 9.01136 86.304 9.375H86.554V6.54545H89.8835V24.3864C89.8835 25.8864 89.535 27.1174 88.8381 28.0795C88.1411 29.0417 87.1979 29.7538 86.0085 30.2159C84.8267 30.678 83.4934 30.9091 82.0085 30.9091ZM81.9744 20.9205C82.9517 20.9205 83.7775 20.6932 84.4517 20.2386C85.1335 19.7765 85.6487 19.1174 85.9972 18.2614C86.3532 17.3977 86.5312 16.3636 86.5312 15.1591C86.5312 13.9848 86.357 12.9508 86.0085 12.0568C85.66 11.1629 85.1487 10.4659 84.4744 9.96591C83.8002 9.45833 82.9669 9.20455 81.9744 9.20455C80.9517 9.20455 80.0994 9.4697 79.4176 10C78.7358 10.5227 78.2206 11.2348 77.8722 12.1364C77.5313 13.0379 77.3608 14.0455 77.3608 15.1591C77.3608 16.303 77.535 17.3068 77.8835 18.1705C78.232 19.0341 78.7472 19.7083 79.429 20.1932C80.1184 20.678 80.9669 20.9205 81.9744 20.9205ZM94.4403 24V6.54545H97.7244V9.31818H97.9062C98.2244 8.37879 98.785 7.64015 99.5881 7.10227C100.399 6.55682 101.315 6.28409 102.338 6.28409C102.55 6.28409 102.8 6.29167 103.088 6.30682C103.384 6.32197 103.615 6.34091 103.781 6.36364V9.61364C103.645 9.57576 103.402 9.53409 103.054 9.48864C102.705 9.43561 102.357 9.40909 102.009 9.40909C101.205 9.40909 100.49 9.57954 99.8608 9.92045C99.2396 10.2538 98.7472 10.7197 98.3835 11.3182C98.0199 11.9091 97.8381 12.5833 97.8381 13.3409V24H94.4403ZM113.449 24.3523C111.813 24.3523 110.384 23.9773 109.165 23.2273C107.945 22.4773 106.998 21.428 106.324 20.0795C105.65 18.7311 105.312 17.1553 105.312 15.3523C105.312 13.5417 105.65 11.9583 106.324 10.6023C106.998 9.24621 107.945 8.19318 109.165 7.44318C110.384 6.69318 111.813 6.31818 113.449 6.31818C115.085 6.31818 116.513 6.69318 117.733 7.44318C118.953 8.19318 119.9 9.24621 120.574 10.6023C121.248 11.9583 121.585 13.5417 121.585 15.3523C121.585 17.1553 121.248 18.7311 120.574 20.0795C119.9 21.428 118.953 22.4773 117.733 23.2273C116.513 23.9773 115.085 24.3523 113.449 24.3523ZM113.46 21.5C114.521 21.5 115.4 21.2197 116.097 20.6591C116.794 20.0985 117.309 19.3523 117.642 18.4205C117.983 17.4886 118.153 16.4621 118.153 15.3409C118.153 14.2273 117.983 13.2045 117.642 12.2727C117.309 11.3333 116.794 10.5795 116.097 10.0114C115.4 9.44318 114.521 9.15909 113.46 9.15909C112.392 9.15909 111.506 9.44318 110.801 10.0114C110.104 10.5795 109.585 11.3333 109.244 12.2727C108.911 13.2045 108.744 14.2273 108.744 15.3409C108.744 16.4621 108.911 17.4886 109.244 18.4205C109.585 19.3523 110.104 20.0985 110.801 20.6591C111.506 21.2197 112.392 21.5 113.46 21.5ZM136.435 16.7614V6.54545H139.844V24H136.503V20.9773H136.321C135.92 21.9091 135.276 22.6856 134.389 23.3068C133.51 23.9205 132.416 24.2273 131.105 24.2273C129.984 24.2273 128.991 23.9811 128.128 23.4886C127.272 22.9886 126.598 22.25 126.105 21.2727C125.62 20.2955 125.378 19.0871 125.378 17.6477V6.54545H128.776V17.2386C128.776 18.428 129.105 19.375 129.764 20.0795C130.423 20.7841 131.279 21.1364 132.332 21.1364C132.969 21.1364 133.601 20.9773 134.23 20.6591C134.866 20.3409 135.393 19.8598 135.81 19.2159C136.234 18.572 136.442 17.7538 136.435 16.7614ZM147.807 13.6364V24H144.409V6.54545H147.67V9.38636H147.886C148.288 8.46212 148.917 7.7197 149.773 7.15909C150.636 6.59848 151.723 6.31818 153.034 6.31818C154.223 6.31818 155.265 6.56818 156.159 7.06818C157.053 7.56061 157.746 8.29545 158.239 9.27273C158.731 10.25 158.977 11.4583 158.977 12.8977V24H155.58V13.3068C155.58 12.0417 155.25 11.053 154.591 10.3409C153.932 9.62121 153.027 9.26136 151.875 9.26136C151.087 9.26136 150.386 9.43182 149.773 9.77273C149.167 10.1136 148.686 10.6136 148.33 11.2727C147.981 11.9242 147.807 12.7121 147.807 13.6364ZM170.068 24.3409C168.659 24.3409 167.402 23.9811 166.295 23.2614C165.197 22.5341 164.333 21.5 163.705 20.1591C163.083 18.8106 162.773 17.1932 162.773 15.3068C162.773 13.4205 163.087 11.8068 163.716 10.4659C164.352 9.125 165.223 8.09848 166.33 7.38636C167.436 6.67424 168.689 6.31818 170.091 6.31818C171.174 6.31818 172.045 6.5 172.705 6.86364C173.371 7.2197 173.886 7.63636 174.25 8.11364C174.621 8.59091 174.909 9.01136 175.114 9.375H175.318V0.727272H178.716V24H175.398V21.2841H175.114C174.909 21.6553 174.614 22.0795 174.227 22.5568C173.848 23.0341 173.326 23.4508 172.659 23.8068C171.992 24.1629 171.129 24.3409 170.068 24.3409ZM170.818 21.4432C171.795 21.4432 172.621 21.1856 173.295 20.6705C173.977 20.1477 174.492 19.4242 174.841 18.5C175.197 17.5758 175.375 16.5 175.375 15.2727C175.375 14.0606 175.201 13 174.852 12.0909C174.504 11.1818 173.992 10.4735 173.318 9.96591C172.644 9.45833 171.811 9.20455 170.818 9.20455C169.795 9.20455 168.943 9.4697 168.261 10C167.58 10.5303 167.064 11.2538 166.716 12.1705C166.375 13.0871 166.205 14.1212 166.205 15.2727C166.205 16.4394 166.379 17.4886 166.727 18.4205C167.076 19.3523 167.591 20.0909 168.273 20.6364C168.962 21.1742 169.811 21.4432 170.818 21.4432ZM191.989 24V21.4545L199.864 13.2955C200.705 12.4091 201.398 11.6326 201.943 10.9659C202.496 10.2917 202.909 9.65151 203.182 9.04545C203.455 8.43939 203.591 7.79545 203.591 7.11364C203.591 6.34091 203.409 5.67424 203.045 5.11364C202.682 4.54545 202.186 4.10985 201.557 3.80682C200.928 3.49621 200.22 3.34091 199.432 3.34091C198.598 3.34091 197.871 3.51136 197.25 3.85227C196.629 4.19318 196.152 4.67424 195.818 5.29545C195.485 5.91667 195.318 6.64394 195.318 7.47727H191.966C191.966 6.06061 192.292 4.82197 192.943 3.76136C193.595 2.70076 194.489 1.87879 195.625 1.29545C196.761 0.704545 198.053 0.40909 199.5 0.40909C200.962 0.40909 202.25 0.700757 203.364 1.28409C204.485 1.85985 205.36 2.64773 205.989 3.64773C206.617 4.64015 206.932 5.76136 206.932 7.01136C206.932 7.875 206.769 8.7197 206.443 9.54545C206.125 10.3712 205.568 11.2917 204.773 12.3068C203.977 13.3144 202.871 14.5379 201.455 15.9773L196.83 20.8182V20.9886H207.307V24H191.989Z" fill="black"/>
<path d="M-2 30.3636H209.375V32.5455H-2V30.3636Z" fill="black"/>
<a href="https://nubank.com.br/images-cms/1649356472-three-women-smiling-outdoors-lg-3x.jpg?w=1152&#38;dpr=1&#38;auto=compress&#38;fm=webp">
<rect fill="black" fill-opacity="0" y="0.136364" width="211.375" height="38.7273"/>
</a>
</svg>
